<svg width="111" height="90" viewBox="0 0 111 90" fill="none" xmlns="http://www.w3.org/2000/svg">
<path d="M60.5592 16.1632C60.8464 16.1797 61.0912 15.9558 61.1074 15.6633C61.1237 15.3707 60.9039 15.1214 60.6167 15.1049C60.3295 15.0883 60.0847 15.3122 60.0685 15.6048C60.0522 15.8973 60.272 16.1466 60.5592 16.1632Z" fill="white"/>
<path d="M60.9863 19.4527C61.3822 19.4755 61.7206 19.1665 61.7431 18.7632C61.7656 18.36 61.4621 18.0153 61.0663 17.9924C60.6704 17.9695 60.332 18.2786 60.3095 18.6818C60.287 19.085 60.5905 19.4298 60.9863 19.4527Z" fill="white"/>
<path d="M60.9851 22.7418C61.4721 22.7698 61.8879 22.3895 61.9154 21.8934C61.9429 21.3973 61.5695 20.9725 61.0825 20.9458C60.5955 20.9178 60.1784 21.2981 60.1522 21.7942C60.1247 22.2903 60.4981 22.7151 60.9851 22.7418Z" fill="white"/>
<path d="M60.6342 25.9854C61.1987 26.0172 61.6807 25.5771 61.7119 25.0022C61.7431 24.4272 61.3111 23.9363 60.7466 23.9045C60.1822 23.8727 59.7002 24.3128 59.6689 24.8877C59.6377 25.4626 60.0698 25.9536 60.6342 25.9854Z" fill="white"/>
<path d="M59.9923 29.1592C60.6205 29.1948 61.1574 28.7051 61.1924 28.0653C61.2274 27.4255 60.7466 26.8785 60.1185 26.8429C59.4903 26.8073 58.9534 27.297 58.9184 27.9368C58.8835 28.5766 59.3642 29.1236 59.9923 29.1592Z" fill="white"/>
<path d="M59.1769 32.2488C59.8583 32.2488 60.4106 31.6861 60.4106 30.9921C60.4106 30.298 59.8583 29.7354 59.1769 29.7354C58.4955 29.7354 57.9431 30.298 57.9431 30.9921C57.9431 31.6861 58.4955 32.2488 59.1769 32.2488Z" fill="white"/>
<path d="M58.0281 35.2468C58.7486 35.2875 59.3667 34.7253 59.4054 33.99C59.4454 33.2561 58.8935 32.6265 58.1717 32.587C57.4511 32.5463 56.833 33.1086 56.7931 33.8438C56.7531 34.5777 57.305 35.2073 58.0268 35.248L58.0281 35.2468Z" fill="white"/>
<path d="M56.8343 38.1814C57.5861 38.2233 58.2292 37.637 58.2716 36.8712C58.3128 36.1055 57.7372 35.4504 56.9854 35.4071C56.2337 35.3652 55.5906 35.9516 55.5481 36.7173C55.5069 37.483 56.0826 38.1381 56.8343 38.1814Z" fill="white"/>
<path d="M55.6705 41.0751C56.4429 41.0751 57.0691 40.4373 57.0691 39.6505C57.0691 38.8637 56.4429 38.2258 55.6705 38.2258C54.898 38.2258 54.2719 38.8637 54.2719 39.6505C54.2719 40.4373 54.898 41.0751 55.6705 41.0751Z" fill="white"/>
<path d="M54.3592 43.9486C55.1397 43.9931 55.8065 43.3838 55.849 42.5901C55.8927 41.7951 55.2945 41.1159 54.5153 41.0726C53.7349 41.0281 53.068 41.6374 53.0256 42.4311C52.9819 43.2261 53.58 43.9053 54.3592 43.9486Z" fill="white"/>
<path d="M53.1929 46.8386C53.9733 46.8831 54.6414 46.2738 54.6839 45.4788C54.7276 44.6838 54.1294 44.0033 53.349 43.9601C52.5685 43.9155 51.9004 44.5248 51.858 45.3198C51.8143 46.1148 52.4124 46.7953 53.1929 46.8386Z" fill="white"/>
<path d="M52.1565 49.7628C52.9294 49.8061 53.59 49.2044 53.6325 48.4171C53.6749 47.6297 53.0843 46.9568 52.3113 46.9136C51.5383 46.8703 50.8777 47.472 50.8353 48.2593C50.7928 49.0467 51.3835 49.7196 52.1565 49.7628Z" fill="white"/>
<path d="M51.316 52.7291C52.069 52.7711 52.7134 52.1847 52.7546 51.4177C52.7958 50.6506 52.2201 49.9943 51.4671 49.9523C50.7141 49.9103 50.0698 50.4967 50.0286 51.2637C49.9874 52.0307 50.563 52.6871 51.316 52.7291Z" fill="white"/>
<path d="M50.7392 55.7387C51.4622 55.7794 52.0803 55.2159 52.1203 54.4795C52.1602 53.743 51.607 53.1133 50.884 53.0726C50.161 53.0319 49.5428 53.5954 49.5029 54.3319C49.4629 55.0684 50.0161 55.698 50.7392 55.7387Z" fill="white"/>
<path d="M50.4794 58.7748C51.1612 58.8129 51.7456 58.2812 51.7831 57.5867C51.8205 56.8922 51.2986 56.2969 50.6167 56.2588C49.9349 56.2206 49.3505 56.7523 49.3131 57.4468C49.2756 58.1413 49.7976 58.7366 50.4794 58.7748Z" fill="white"/>
<path d="M50.6017 61.8024C51.2328 61.8024 51.7443 61.2813 51.7443 60.6385C51.7443 59.9957 51.2328 59.4746 50.6017 59.4746C49.9707 59.4746 49.4591 59.9957 49.4591 60.6385C49.4591 61.2813 49.9707 61.8024 50.6017 61.8024Z" fill="white"/>
<path d="M51.9902 63.7977C52.0216 63.2212 51.5881 62.7279 51.0221 62.6959C50.4561 62.664 49.9718 63.1055 49.9404 63.6821C49.9091 64.2587 50.3425 64.752 50.9086 64.7839C51.4746 64.8158 51.9589 64.3743 51.9902 63.7977Z" fill="white"/>
<path d="M52.5146 66.838C52.5417 66.34 52.1673 65.9139 51.6784 65.8864C51.1895 65.8588 50.7712 66.2401 50.7441 66.7382C50.717 67.2362 51.0914 67.6623 51.5803 67.6898C52.0692 67.7174 52.4875 67.3361 52.5146 66.838Z" fill="white"/>
<path d="M52.5461 70.4861C52.9432 70.509 53.2841 70.1986 53.3054 69.7929C53.3278 69.3884 53.0231 69.0411 52.6248 69.0195C52.2277 68.9966 51.8868 69.307 51.8655 69.7127C51.8431 70.1172 52.1478 70.4645 52.5461 70.4861Z" fill="white"/>
<path d="M54.3515 72.6378C54.3674 72.3446 54.147 72.0937 53.8592 72.0775C53.5713 72.0613 53.3251 72.2858 53.3091 72.579C53.2932 72.8722 53.5136 73.123 53.8015 73.1393C54.0893 73.1555 54.3356 72.931 54.3515 72.6378Z" fill="white"/>
<path d="M54.2706 57.8452C53.9872 60.0636 53.5414 65.9096 56.7969 71.9402C58.6999 75.4648 61.15 77.7252 62.7921 79.001C61.2761 77.0968 59.5928 74.6253 58.108 71.5586C55.5181 66.2086 54.6078 61.2656 54.2706 57.8452Z" fill="white"/>
<path d="M53.3378 9.24102C54.6315 11.0498 57.7733 15.9622 57.7546 22.8437C57.7434 26.867 56.6569 30.0457 55.8165 31.9677C56.2511 29.556 56.5645 26.5655 56.4247 23.149C56.1799 17.1897 54.6527 12.4057 53.3378 9.23975V9.24102Z" fill="white"/>
<path d="M13.1818 35.1631C13.1106 35.8449 13.0619 36.5038 13.0357 37.141C13.0095 37.7783 12.997 38.2667 12.997 38.6076C12.997 39.0376 13.0057 39.4421 13.0232 39.8186C13.0407 40.1951 13.0582 40.5271 13.0756 40.8133H12.4688C12.3451 39.5578 12.179 38.5669 11.9668 37.8406C11.7557 37.1143 11.3848 36.589 10.8579 36.2672C10.3296 35.9441 9.51047 35.7825 8.40033 35.7825H6.737C6.13885 35.7825 5.6843 35.8322 5.37586 35.9301C5.06867 36.0293 4.86138 36.2354 4.75523 36.5496C4.64909 36.8637 4.59664 37.3522 4.59664 38.0162V51.3632C4.59664 52.0093 4.66283 52.4927 4.79519 52.8158C4.92756 53.1389 5.18605 53.3538 5.57441 53.462C5.96152 53.5688 6.52471 53.6413 7.26522 53.6769V54.215C6.80568 54.1794 6.22626 54.1565 5.52197 54.1476C4.81642 54.1387 4.10464 54.1348 3.38161 54.1348C2.65859 54.1348 2.05169 54.1387 1.45354 54.1476C0.855393 54.1565 0.36963 54.1794 0 54.215V53.6769C0.59815 53.6413 1.05269 53.5688 1.36114 53.462C1.66833 53.3538 1.87562 53.1389 1.98176 52.8158C2.08791 52.4927 2.14035 52.0093 2.14035 51.3632V38.0162C2.14035 37.3535 2.08791 36.8637 1.98176 36.5496C1.87687 36.2354 1.66958 36.0204 1.36114 35.9034C1.05269 35.7864 0.599399 35.7189 0 35.7011V35.1631C0.651847 35.1809 1.33866 35.1949 2.06043 35.2038C2.78221 35.2127 3.49525 35.2216 4.20079 35.2305C4.90508 35.2394 5.56068 35.2445 6.16882 35.2445H7.66107C8.47151 35.2445 9.39184 35.2407 10.4208 35.2305C11.451 35.2216 12.3714 35.1987 13.1818 35.1631ZM9.08589 44.6356V45.1737H3.80369V44.6356H9.08714H9.08589ZM9.58789 41.0842C9.51796 42.1069 9.48674 42.8866 9.49548 43.4247C9.50422 43.9627 9.50922 44.4563 9.50922 44.904C9.50922 45.3517 9.51796 45.8465 9.53544 46.3846C9.55293 46.9227 9.59663 47.7024 9.66781 48.7251H9.06092C8.98974 48.1514 8.90607 47.5904 8.80992 47.0435C8.71377 46.4965 8.50148 46.0475 8.17556 45.6977C7.84963 45.3479 7.29893 45.1737 6.52471 45.1737V44.6356C7.10663 44.6356 7.55118 44.5148 7.85962 44.2718C8.16681 44.0301 8.39159 43.721 8.5327 43.3433C8.67381 42.9655 8.76996 42.5763 8.82366 42.1718C8.8761 41.7685 8.92855 41.4048 8.98225 41.0829H9.58914L9.58789 41.0842Z" fill="white"/>
<path d="M20.4732 39.98C22.0217 39.98 23.233 40.4595 24.1058 41.4186C24.9775 42.379 25.4133 43.8723 25.4133 45.8986H16.0889L16.0614 45.3872H22.8771C22.912 44.5083 22.8421 43.6967 22.6648 42.9526C22.49 42.2085 22.2115 41.6119 21.8331 41.1629C21.4547 40.7152 20.9652 40.4901 20.3671 40.4901C19.5579 40.4901 18.8399 40.9034 18.2142 41.7277C17.5899 42.5532 17.214 43.8634 17.0916 45.6569L17.1715 45.7637C17.1366 46.0334 17.1091 46.3285 17.0916 46.6516C17.0729 46.9747 17.0641 47.2978 17.0641 47.6208C17.0641 48.8407 17.2577 49.8901 17.6461 50.769C18.0332 51.648 18.5389 52.3158 19.1645 52.7737C19.7902 53.2316 20.437 53.4606 21.1063 53.4606C21.6346 53.4606 22.1366 53.3753 22.6123 53.2049C23.0881 53.0344 23.5277 52.7521 23.9335 52.3577C24.3393 51.9634 24.6902 51.4343 24.9899 50.7703L25.5182 50.9853C25.3234 51.5767 25.0062 52.1517 24.5666 52.7075C24.1258 53.2647 23.5714 53.7175 22.9033 54.0673C22.234 54.4171 21.4585 54.5914 20.5781 54.5914C19.3094 54.5914 18.2217 54.295 17.3164 53.7035C16.4098 53.112 15.7142 52.2916 15.2285 51.2422C14.7452 50.1928 14.5017 48.9857 14.5017 47.6234C14.5017 46.0448 14.749 44.6864 15.2422 43.5466C15.7342 42.4082 16.431 41.5293 17.3289 40.9098C18.228 40.2916 19.2744 39.9813 20.4732 39.9813V39.98Z" fill="white"/>
<path d="M33.8386 39.98C35.387 39.98 36.5983 40.4595 37.4712 41.4186C38.3428 42.379 38.7786 43.8723 38.7786 45.8986H29.4542L29.4268 45.3872H36.2424C36.2774 44.5083 36.2075 43.6967 36.0301 42.9526C35.8553 42.2085 35.5768 41.6119 35.1985 41.1629C34.8201 40.7152 34.3306 40.4901 33.7324 40.4901C32.9232 40.4901 32.2052 40.9034 31.5796 41.7277C30.9552 42.5532 30.5793 43.8634 30.457 45.6569L30.5369 45.7637C30.5019 46.0334 30.4745 46.3285 30.457 46.6516C30.4382 46.9747 30.4295 47.2978 30.4295 47.6208C30.4295 48.8407 30.6231 49.8901 31.0114 50.769C31.3985 51.648 31.9043 52.3158 32.5299 52.7737C33.1555 53.2316 33.8024 53.4606 34.4717 53.4606C34.9999 53.4606 35.5019 53.3753 35.9777 53.2049C36.4535 53.0344 36.893 52.7521 37.2989 52.3577C37.7047 51.9634 38.0556 51.4343 38.3553 50.7703L38.8835 50.9853C38.6887 51.5767 38.3715 52.1517 37.932 52.7075C37.4912 53.2647 36.9367 53.7175 36.2686 54.0673C35.5993 54.4171 34.8238 54.5914 33.9435 54.5914C32.6747 54.5914 31.5871 54.295 30.6817 53.7035C29.7752 53.112 29.0796 52.2916 28.5938 51.2422C28.1106 50.1928 27.8671 48.9857 27.8671 47.6234C27.8671 46.0448 28.1143 44.6864 28.6076 43.5466C29.0996 42.4082 29.7964 41.5293 30.6942 40.9098C31.5933 40.2916 32.6398 39.9813 33.8386 39.9813V39.98Z" fill="white"/>
<path d="M44.9862 33.1189V51.7129C44.9862 52.4659 45.141 52.9772 45.4482 53.2469C45.7566 53.5153 46.2711 53.6501 46.9941 53.6501V54.2149C46.6944 54.1971 46.2412 54.1742 45.633 54.1475C45.0261 54.1208 44.4142 54.1068 43.7974 54.1068C43.1805 54.1068 42.5911 54.1208 41.9754 54.1475C41.3585 54.1742 40.9003 54.1971 40.6018 54.2149V53.6501C41.3236 53.6501 41.8393 53.5153 42.1465 53.2469C42.4549 52.9772 42.6085 52.4659 42.6085 51.7129V36.3485C42.6085 35.542 42.4674 34.9442 42.1865 34.5588C41.9042 34.1734 41.376 33.9813 40.6018 33.9813V33.4165C41.165 33.47 41.7107 33.4967 42.2389 33.4967C42.7671 33.4967 43.2392 33.4649 43.7049 33.4026C44.1707 33.3402 44.599 33.2448 44.9862 33.1202V33.1189Z" fill="white"/>
<path d="M68.7074 34.7864C69.8513 34.7864 70.7766 34.9619 71.4809 35.3117C72.1852 35.6615 72.8458 36.0698 73.4614 36.5354C73.6899 36.7147 73.8672 36.805 73.9896 36.805C74.3243 36.805 74.5441 36.2581 74.6502 35.1629H75.2571C75.2221 35.8269 75.1959 36.6346 75.1784 37.5848C75.1597 38.5362 75.1509 39.7917 75.1509 41.3511H74.5441C74.4204 40.5981 74.2706 39.8718 74.0945 39.1722C73.9184 38.4726 73.6275 37.8722 73.2229 37.3698C72.7121 36.7058 72.0428 36.1907 71.2149 35.823C70.387 35.4554 69.5328 35.271 68.6525 35.271C67.7721 35.271 66.9754 35.4911 66.2624 35.9299C65.5493 36.37 64.9374 37.0022 64.4267 37.8264C63.916 38.652 63.5238 39.6428 63.2516 40.8004C62.9781 41.9566 62.842 43.2617 62.842 44.7155C62.842 47.9451 63.3528 50.3085 64.3742 51.8056C65.3957 53.304 66.9804 54.052 69.1295 54.052C69.7638 54.052 70.3133 53.9578 70.7803 53.7696C71.2474 53.5813 71.612 53.3969 71.8767 53.2175C72.2114 52.9848 72.4212 52.7647 72.5111 52.5586C72.5985 52.3526 72.6422 52.0791 72.6422 51.7382V49.1548C72.6422 48.4196 72.5723 47.8726 72.4312 47.5139C72.2888 47.1552 72.0303 46.9135 71.6519 46.7876C71.2723 46.6617 70.7141 46.5905 69.9736 46.5727V46.0346C70.2908 46.0524 70.6604 46.0664 71.0825 46.0753C71.5058 46.0842 71.9504 46.0931 72.4174 46.102C72.8832 46.1109 73.3103 46.1147 73.6974 46.1147C74.2793 46.1147 74.8025 46.1058 75.2696 46.088C75.7366 46.0702 76.1275 46.0524 76.4446 46.0346V46.5727C76.0575 46.5905 75.7666 46.6528 75.573 46.7609C75.3795 46.869 75.2521 47.084 75.1909 47.4071C75.1285 47.7289 75.0985 48.2237 75.0985 48.8864V54.2148H74.5703C74.5528 53.9095 74.4866 53.5775 74.373 53.2188C74.2581 52.8601 74.087 52.6808 73.8585 52.6808C73.7536 52.6808 73.6462 52.7075 73.5413 52.7622C73.4364 52.8156 73.2516 52.9415 72.9869 53.1387C72.4049 53.5864 71.7893 53.9413 71.1375 54.2008C70.4856 54.4603 69.7289 54.5913 68.8647 54.5913C67.0503 54.5913 65.4969 54.2097 64.2019 53.4478C62.9082 52.6858 61.918 51.5868 61.2311 50.152C60.5443 48.7172 60.2009 47.0039 60.2009 45.0132C60.2009 42.9144 60.5706 41.1031 61.3098 39.578C62.0491 38.0541 63.0581 36.8737 64.3343 36.0393C65.6118 35.2049 67.069 34.7876 68.7074 34.7876V34.7864Z" fill="white"/>
<path d="M94.6476 35.1629V35.7009C94.0495 35.7188 93.5949 35.8091 93.2877 35.9706C92.9793 36.1322 92.772 36.3916 92.6659 36.7503C92.561 37.109 92.5073 37.6204 92.5073 38.2844V46.3844C92.5073 47.6399 92.4274 48.735 92.2688 49.6674C92.1102 50.6011 91.8292 51.4075 91.4234 52.0893C90.9826 52.8423 90.3394 53.4478 89.4953 53.9057C88.6499 54.3623 87.6809 54.5913 86.5895 54.5913C85.7441 54.5913 84.9386 54.4883 84.1719 54.2822C83.4051 54.0761 82.7321 53.6945 82.1514 53.1387C81.6394 52.6362 81.2398 52.1071 80.9501 51.5512C80.6592 50.9954 80.4606 50.3136 80.3557 49.5059C80.2496 48.6994 80.1971 47.6857 80.1971 46.4658V38.016C80.1971 37.3533 80.1447 36.8635 80.0385 36.5494C79.9324 36.2352 79.7263 36.0202 79.4166 35.9032C79.1082 35.7862 78.6549 35.7188 78.0568 35.7009V35.1629C78.4264 35.1807 78.9097 35.1985 79.5091 35.2176C80.1085 35.2367 80.7503 35.2443 81.4371 35.2443C82.054 35.2443 82.6659 35.2354 83.2728 35.2176C83.8809 35.1998 84.3867 35.182 84.7913 35.1629V35.7009C84.1931 35.7188 83.7386 35.7862 83.4314 35.9032C83.1229 36.0202 82.9169 36.2352 82.8095 36.5494C82.7046 36.8635 82.6509 37.352 82.6509 38.016V46.9225C82.6509 47.837 82.6934 48.7032 82.7833 49.5186C82.8707 50.3352 83.0505 51.0526 83.324 51.6708C83.5975 52.2903 84.0145 52.7736 84.579 53.1234C85.1422 53.4732 85.8902 53.6488 86.8242 53.6488C88.1629 53.6488 89.1968 53.3486 89.9274 52.7469C90.6579 52.1465 91.1699 51.3159 91.4596 50.2576C91.7493 49.1993 91.8954 48.0062 91.8954 46.6782V38.2831C91.8954 37.6191 91.8205 37.1078 91.6706 36.7491C91.5208 36.3904 91.271 36.1309 90.9176 35.9693C90.5655 35.8078 90.0897 35.7175 89.4916 35.6997V35.1616C89.8087 35.1794 90.2271 35.1972 90.7465 35.2163C91.266 35.2354 91.7468 35.243 92.1863 35.243C92.6259 35.243 93.0979 35.2341 93.5462 35.2163C93.9958 35.1985 94.3604 35.1807 94.6426 35.1616L94.6476 35.1629Z" fill="white"/>
<path d="M111 35.1631C110.929 35.8449 110.88 36.5038 110.855 37.141C110.828 37.7783 110.815 38.2667 110.815 38.6076C110.815 39.0376 110.824 39.4421 110.843 39.8186C110.86 40.1951 110.878 40.5271 110.895 40.8133H110.287C110.165 39.5578 109.997 38.5669 109.785 37.8406C109.574 37.1143 109.204 36.589 108.676 36.2672C108.148 35.9441 107.329 35.7825 106.22 35.7825H104.794V51.0935C104.794 51.8109 104.86 52.349 104.991 52.7077C105.123 53.0664 105.382 53.3093 105.77 53.4352C106.157 53.5612 106.722 53.6413 107.461 53.6769V54.215C107.003 54.1794 106.422 54.1565 105.718 54.1476C105.012 54.1387 104.301 54.1348 103.577 54.1348C102.786 54.1348 102.042 54.1387 101.345 54.1476C100.649 54.1565 100.09 54.1794 99.6676 54.215V53.6769C100.407 53.6413 100.97 53.5599 101.358 53.4352C101.746 53.3093 102.005 53.0676 102.138 52.7077C102.27 52.349 102.335 51.8109 102.335 51.0935V35.7825H100.909C99.8162 35.7825 99.0021 35.9441 98.4651 36.2672C97.9281 36.589 97.5535 37.1143 97.3412 37.8406C97.1302 38.5669 96.9629 39.5591 96.8392 40.8133H96.2323C96.2673 40.5271 96.2898 40.1951 96.2985 39.8186C96.3085 39.4421 96.3123 39.0376 96.3123 38.6076C96.3123 38.2667 96.2985 37.7783 96.2723 37.141C96.2448 36.5038 96.1974 35.8449 96.1274 35.1631C96.8667 35.1809 97.6721 35.1987 98.5438 35.2178C99.4154 35.2369 100.292 35.2445 101.172 35.2445H105.966C106.838 35.2445 107.715 35.2356 108.595 35.2178C109.475 35.2 110.276 35.1822 110.999 35.1631H111Z" fill="white"/>
<path d="M39.3231 4.6237C63.0681 -5.75703 89.2668 7.85456 96.6407 31.1918H96.6969C87.5697 0.993435 48.8998 -11.3996 24.3668 12.7492C19.0584 17.9885 15.3846 24.3714 13.3267 31.1931H15.6206C19.0709 20.0313 26.9543 10.1022 39.3231 4.62497V4.6237Z" fill="white"/>
<path d="M39.3206 84.3892C26.9492 78.9094 19.0646 68.9777 15.6168 57.8147H13.3291C15.387 64.6351 19.0621 71.0154 24.368 76.2548C48.9035 100.396 87.566 88.0131 96.6943 57.8147H96.6394C89.2668 81.1545 63.0718 94.7686 39.3193 84.3892H39.3206Z" fill="white"/>
<path d="M97.8582 35.949C97.8844 36.0914 97.9081 36.2352 97.9331 36.3776C97.9069 36.2352 97.8856 36.0902 97.8582 35.949Z" fill="black"/>
</svg>
