<svg width="34" height="175" viewBox="0 0 34 175" fill="none" xmlns="http://www.w3.org/2000/svg">
<g clip-path="url(#clip0_51_3)">
<path d="M28.3657 17.3537C29.0873 17.3818 29.6979 16.8474 29.7534 16.088C29.8089 15.3286 29.2538 14.738 28.5045 14.6817C27.7551 14.6255 27.1722 15.188 27.1167 15.9474C27.0612 16.7068 27.644 17.2975 28.3657 17.3537Z" fill="#A6A59B" fill-opacity="0.6"/>
<path d="M29.4481 25.6228C30.4473 25.679 31.3077 24.8915 31.3632 23.879C31.4187 22.8664 30.6416 21.9945 29.6424 21.9383C28.6432 21.882 27.7828 22.6695 27.7273 23.6821C27.6718 24.6946 28.4489 25.5665 29.4481 25.6228Z" fill="#A6A59B" fill-opacity="0.6"/>
<path d="M29.4481 33.8637C30.6693 33.9199 31.724 32.9918 31.8073 31.7261C31.8906 30.4604 30.9469 29.4198 29.6979 29.3354C28.4489 29.251 27.422 30.2073 27.3387 31.473C27.2555 32.7386 28.1991 33.7793 29.4481 33.8637Z" fill="#A6A59B" fill-opacity="0.6"/>
<path d="M28.56 41.9921C29.9755 42.0765 31.1967 40.9796 31.28 39.517C31.3633 38.0545 30.2808 36.845 28.8375 36.7607C27.3943 36.6763 26.2008 37.7732 26.1175 39.2358C26.0343 40.6983 27.1167 41.9077 28.56 41.9921Z" fill="#A6A59B" fill-opacity="0.6"/>
<path d="M26.9225 49.9798C28.5045 50.0642 29.8645 48.8267 29.9478 47.2235C30.0311 45.6203 28.8099 44.2421 27.2278 44.1578C25.6458 44.0734 24.2858 45.3109 24.2025 46.9141C24.1192 48.5173 25.3405 49.8955 26.9225 49.9798Z" fill="#A6A59B" fill-opacity="0.6"/>
<path d="M24.8686 57.7145C26.5854 57.7145 27.9772 56.3042 27.9772 54.5644C27.9772 52.8247 26.5854 51.4143 24.8686 51.4143C23.1518 51.4143 21.76 52.8247 21.76 54.5644C21.76 56.3042 23.1518 57.7145 24.8686 57.7145Z" fill="#A6A59B" fill-opacity="0.6"/>
<path d="M21.982 65.2242C23.8138 65.3367 25.3681 63.9022 25.4514 62.074C25.5347 60.2459 24.1469 58.6427 22.3428 58.5583C20.5387 58.4739 18.9567 59.8802 18.8734 61.7084C18.7902 63.5366 20.1779 65.1398 21.982 65.2242Z" fill="#A6A59B" fill-opacity="0.6"/>
<path d="M18.9844 72.5932C20.8718 72.7057 22.5093 71.215 22.6204 69.3024C22.7314 67.3898 21.2604 65.7304 19.373 65.6179C17.4857 65.5054 15.8481 66.9961 15.7371 68.9087C15.6261 70.8212 17.0971 72.4807 18.9844 72.5932Z" fill="#A6A59B" fill-opacity="0.6"/>
<path d="M16.0425 79.8497C17.9892 79.8497 19.5674 78.2505 19.5674 76.2777C19.5674 74.3049 17.9892 72.7057 16.0425 72.7057C14.0957 72.7057 12.5176 74.3049 12.5176 76.2777C12.5176 78.2505 14.0957 79.8497 16.0425 79.8497Z" fill="#A6A59B" fill-opacity="0.6"/>
<path d="M12.7396 87.0781C14.7103 87.1906 16.3756 85.6718 16.4866 83.6748C16.5976 81.6779 15.0988 79.9903 13.1282 79.8778C11.1576 79.7653 9.4923 81.2841 9.38128 83.2811C9.27026 85.278 10.769 86.9656 12.7396 87.0781Z" fill="#A6A59B" fill-opacity="0.6"/>
<path d="M9.79752 94.3064C11.7681 94.419 13.4612 92.9002 13.5445 90.9032C13.6277 88.9063 12.1567 87.1906 10.1861 87.1062C8.21548 87.0218 6.52242 88.5125 6.43916 90.5094C6.35589 92.5064 7.82691 94.2221 9.79752 94.3064Z" fill="#A6A59B" fill-opacity="0.6"/>
<path d="M7.18858 101.647C9.13143 101.76 10.7967 100.241 10.9078 98.2722C11.0188 96.3034 9.52 94.6158 7.57715 94.5033C5.63429 94.3908 3.96898 95.9096 3.85796 97.8784C3.74694 99.8472 5.24572 101.535 7.18858 101.647Z" fill="#A6A59B" fill-opacity="0.6"/>
<path d="M5.05146 109.101C6.93881 109.213 8.57636 107.723 8.68738 105.81C8.7984 103.897 7.32738 102.238 5.44003 102.125C3.55268 102.013 1.91513 103.504 1.80411 105.416C1.69309 107.329 3.16411 108.988 5.05146 109.101Z" fill="#A6A59B" fill-opacity="0.6"/>
<path d="M3.6081 116.638C5.43994 116.751 6.99423 115.317 7.07749 113.488C7.16076 111.66 5.773 110.057 3.96892 109.973C2.16484 109.888 0.582796 111.295 0.499531 113.123C0.416266 114.951 1.80402 116.554 3.6081 116.638Z" fill="#A6A59B" fill-opacity="0.6"/>
<path d="M2.94204 124.261C4.66285 124.345 6.13387 123.023 6.21714 121.279C6.30041 119.535 4.99591 118.045 3.2751 117.96C1.55428 117.876 0.111017 119.198 -3.39281e-06 120.942C-0.111024 122.686 1.22122 124.176 2.94204 124.261Z" fill="#A6A59B" fill-opacity="0.6"/>
<path d="M3.24737 131.855C4.84156 131.855 6.1339 130.545 6.1339 128.93C6.1339 127.314 4.84156 126.004 3.24737 126.004C1.65318 126.004 0.36084 127.314 0.36084 128.93C0.36084 130.545 1.65318 131.855 3.24737 131.855Z" fill="#A6A59B" fill-opacity="0.6"/>
<path d="M4.16326 139.336C5.58883 139.336 6.74448 138.165 6.74448 136.72C6.74448 135.276 5.58883 134.105 4.16326 134.105C2.73768 134.105 1.58203 135.276 1.58203 136.72C1.58203 138.165 2.73768 139.336 4.16326 139.336Z" fill="#A6A59B" fill-opacity="0.6"/>
<path d="M5.85632 146.649C7.09794 146.649 8.10448 145.629 8.10448 144.371C8.10448 143.113 7.09794 142.093 5.85632 142.093C4.61469 142.093 3.60815 143.113 3.60815 144.371C3.60815 145.629 4.61469 146.649 5.85632 146.649Z" fill="#A6A59B" fill-opacity="0.6"/>
<path d="M8.16002 153.652C9.1592 153.709 10.0196 152.921 10.0751 151.908C10.1306 150.896 9.35349 150.024 8.3543 149.968C7.35512 149.912 6.49471 150.699 6.4392 151.712C6.38369 152.724 7.16083 153.596 8.16002 153.652Z" fill="#A6A59B" fill-opacity="0.6"/>
<path d="M11.4074 160.29C12.1278 160.29 12.7119 159.698 12.7119 158.968C12.7119 158.238 12.1278 157.646 11.4074 157.646C10.6869 157.646 10.1029 158.238 10.1029 158.968C10.1029 159.698 10.6869 160.29 11.4074 160.29Z" fill="#A6A59B" fill-opacity="0.6"/>
<path d="M12.5176 121.926C11.7959 127.495 10.6857 142.149 18.8735 157.281C23.6751 166.112 29.8367 171.794 34 175C30.1698 170.219 25.9233 164.031 22.1763 156.324C15.6539 142.908 13.3502 130.505 12.4898 121.926H12.5176Z" fill="#A6A59B" fill-opacity="0.6"/>
<path d="M10.1583 4.98313e-05C13.4057 4.52834 21.3436 16.8757 21.2881 34.1169C21.2881 44.2141 18.5126 52.1738 16.4032 57.0115C17.4857 50.9644 18.2906 43.4547 17.9298 34.8763C17.3191 19.9133 13.4612 7.93158 10.1583 -0.0280762V4.98313e-05Z" fill="#A6A59B" fill-opacity="0.6"/>
</g>
<defs>
<clipPath id="clip0_51_3">
<rect width="34" height="175" fill="white"/>
</clipPath>
</defs>
</svg>
