<svg width="46" height="45" viewBox="0 0 46 45" fill="none" xmlns="http://www.w3.org/2000/svg">
<path d="M37.6518 42.395C37.8381 43.7387 37.0182 44.3733 35.7883 43.7387L25.614 38.625C24.3841 37.9905 22.3716 37.9905 21.179 38.625L10.9674 43.6641C9.73752 44.2613 8.9176 43.6641 9.10395 42.283L10.8183 31.0104C11.0419 29.6667 10.4083 27.7257 9.47663 26.7552L1.53839 18.5807C0.569399 17.6102 0.904812 16.6024 2.24649 16.3785L13.4644 14.5495C14.8061 14.3255 16.4459 13.1684 17.0795 11.9366L22.3716 1.85851C23.0052 0.664066 24.0487 0.664066 24.6823 1.85851L29.8999 11.974C30.5334 13.2057 32.136 14.3629 33.4777 14.6241L44.6956 16.5651C46.0372 16.7891 46.3727 17.7969 45.4037 18.7674L37.3909 26.8672C36.4219 27.8377 35.7884 29.7413 35.9747 31.0851L37.6145 42.3576L37.6518 42.395Z" fill="url(#paint0_radial_52_118)"/>
<path style="mix-blend-mode:multiply" opacity="0.5" d="M23.5642 1.5599C23.7878 1.5599 24.0114 1.78385 24.235 2.19444L29.4526 12.3099C30.1607 13.691 31.9124 14.9601 33.4404 15.2587L44.6583 17.1997C45.0682 17.2743 45.3664 17.4236 45.4409 17.6476C45.5155 17.8715 45.3664 18.1328 45.0682 18.4687L37.0555 26.5686C35.9747 27.651 35.2665 29.7413 35.4902 31.2717L37.13 42.5443C37.1673 42.9175 37.13 43.2161 37.0182 43.3654C37.0182 43.3654 36.9064 43.4774 36.72 43.4774C36.5337 43.4774 36.3101 43.4028 36.0865 43.2908L25.9121 38.1771C25.2413 37.8411 24.3468 37.6545 23.4151 37.6545C22.4834 37.6545 21.6262 37.8411 20.9554 38.1398L10.7437 43.1788C10.5201 43.2908 10.2965 43.3654 10.1102 43.3654C9.88655 43.3654 9.812 43.2908 9.812 43.2535C9.66293 43.1042 9.62566 42.8056 9.7002 42.4323L11.4146 31.1597C11.6382 29.6293 11.0046 27.5391 9.88655 26.4566L1.94831 18.2821C1.65016 17.9835 1.50108 17.6849 1.57561 17.4609C1.65015 17.2743 1.9483 17.0877 2.35825 17.013L13.5762 15.184C15.1042 14.9227 16.8558 13.6536 17.6012 12.2726L22.8933 2.19444C23.0797 1.82118 23.3406 1.59722 23.5642 1.59722M23.5642 1C23.1542 1 22.7443 1.29861 22.4089 1.89583L17.1167 11.974C16.4831 13.1684 14.8433 14.3628 13.5016 14.5868L2.28373 16.4158C0.942053 16.6398 0.606626 17.6102 1.57561 18.6181L9.51384 26.7925C10.4828 27.763 11.0791 29.704 10.8555 31.0477L9.14116 42.3203C8.99209 43.3281 9.40205 43.9253 10.1102 43.9253C10.371 43.9253 10.6692 43.8507 10.9674 43.7014L21.179 38.6623C21.7753 38.3637 22.5952 38.2144 23.3778 38.2144C24.1605 38.2144 25.0177 38.3637 25.614 38.6996L35.7883 43.8134C36.1237 43.9627 36.4219 44.0373 36.6828 44.0373C37.3909 44.0373 37.8008 43.4401 37.6518 42.4696L36.0119 31.197C35.8256 29.8533 36.4592 27.9497 37.4281 26.9792L45.4409 18.8793C46.4099 17.9089 46.0745 16.9384 44.7328 16.6771L33.5149 14.7361C32.1732 14.5122 30.5707 13.3177 29.9371 12.0859L24.7195 1.97049C24.4213 1.37326 23.9741 1.03733 23.5642 1.03733V1Z" fill="url(#paint1_radial_52_118)"/>
<defs>
<radialGradient id="paint0_radial_52_118" cx="0" cy="0" r="1" gradientUnits="userSpaceOnUse" gradientTransform="translate(8.65671 2.86632) scale(47.0331 47.1059)">
<stop offset="0.35" stop-color="#FFC200"/>
<stop offset="0.51" stop-color="#FFBC06"/>
<stop offset="0.72" stop-color="#FFAE18"/>
<stop offset="0.98" stop-color="#FF9736"/>
<stop offset="1" stop-color="#FF953A"/>
</radialGradient>
<radialGradient id="paint1_radial_52_118" cx="0" cy="0" r="1" gradientUnits="userSpaceOnUse" gradientTransform="translate(5.07888 56.2057) scale(68.0155 68.1207)">
<stop offset="0.35" stop-color="#FFC200"/>
<stop offset="0.51" stop-color="#FFBC06"/>
<stop offset="0.72" stop-color="#FFAE18"/>
<stop offset="0.98" stop-color="#FF9736"/>
<stop offset="1" stop-color="#FF953A"/>
</radialGradient>
</defs>
</svg>
